<?xml version="1.0" encoding="UTF-8" standalone="no"?>
<!-- Created with Inkscape (http://www.inkscape.org/) by Marsupilami -->
<svg
   xmlns:svg="http://www.w3.org/2000/svg"
   xmlns="http://www.w3.org/2000/svg"
   version="1.0"
   width="631"
   height="768"
   viewBox="0 0 64.322067 78.233833"
   id="svg3966">
  <defs
     id="defs3968">
    <clipPath
       id="clipPath2662">
      <path
         d="M 32.159,-386.545 L 105.159,-386.545 L 105.159,-288.545 L 32.159,-288.545 L 32.159,-386.545 z"
         id="path2664" />
    </clipPath>
  </defs>
  <g
     transform="translate(-342.83896,-493.24526)"
     id="layer1">
    <g
       transform="matrix(1.267128,0,0,1.25,289.06297,971.45968)"
       id="g2494">
      <path
         d="M 44.039,-381.682 C 42.964,-345.83 39.526,-334.976 67.573,-321.49 C 95.619,-334.976 92.181,-345.83 91.103,-381.682 L 44.039,-381.682"
         id="path2496"
         style="fill:#ffffff;fill-opacity:1;fill-rule:nonzero;stroke:none" />
    </g>
    <g
       transform="matrix(1.267128,0,0,1.25,289.06297,971.45968)"
       id="g2498">
      <path
         d="M 44.039,-381.682 C 42.964,-345.83 39.526,-334.976 67.573,-321.49 C 95.619,-334.976 92.181,-345.83 91.103,-381.682 L 44.039,-381.682 z"
         id="path2500"
         style="fill:none;stroke:#0071bc;stroke-width:1;stroke-linecap:butt;stroke-linejoin:miter;stroke-miterlimit:4;stroke-dasharray:none;stroke-opacity:1" />
    </g>
    <g
       transform="matrix(1.267128,0,0,1.25,289.06297,971.45968)"
       id="g2502">
      <path
         d="M 67.762,-345.892 C 65.518,-345.864 62.963,-345.478 63.045,-346.696 C 63.152,-348.302 62.565,-347.14 62.584,-346.751 C 62.638,-345.671 63.164,-345.089 67.762,-345.449"
         id="path2504"
         style="fill:#00549d;fill-opacity:1;fill-rule:nonzero;stroke:none" />
    </g>
    <g
       transform="matrix(1.267128,0,0,1.25,289.06297,971.45968)"
       id="g2506">
      <path
         d="M 0.9375,0 L 0.90625,1.0625 C 0.21916882,23.667463 -1.2468381,38.458175 2.0625,50 C 5.3718381,61.541824 13.61492,69.552213 31.6875,78.125 L 32.15625,78.34375 L 32.65625,78.125 C 50.728198,69.552219 58.972233,61.541838 62.28125,50 C 65.590267,38.458161 64.095229,23.667475 63.40625,1.0625 L 63.34375,0 L 62.28125,0 L 2.0625,0 L 0.9375,0 z M 3.125,2.1875 L 61.21875,2.1875 C 61.920576,24.150237 63.157436,38.751375 60.09375,49.4375 C 57.005087,60.210736 49.584542,67.528262 32.15625,75.875 C 14.751324,67.534894 7.2744977,60.203875 4.1875,49.4375 C 1.1235071,38.751349 2.4249929,24.150262 3.125,2.1875 z M 60.8125,19.8125 L 60.78125,19.9375 L 32.15625,36.53125 L 58.125,51.59375 L 58.375,51.71875 C 61.389496,43.7175 61.325687,33.8 60.8125,19.8125 z M 32.15625,36.53125 L 3.53125,19.9375 L 3.46875,19.9375 C 2.9593645,33.851251 2.930605,43.743751 5.9375,51.71875 L 5.96875,51.71875 L 32.15625,36.53125 z M 25.96875,43.6875 C 25.874142,43.676187 25.833771,43.757775 25.78125,43.8125 C 25.676207,43.92195 25.598769,44.099188 25.53125,44.28125 C 25.463731,44.463312 25.398726,44.629287 25.40625,44.78125 C 25.423785,45.1272 25.477421,45.4436 25.65625,45.71875 C 25.835078,45.9939 26.125518,46.222437 26.59375,46.375 C 27.530212,46.680125 29.206852,46.725388 32.125,46.5 L 32.0625,46.3125 C 29.154391,46.537112 27.557962,46.439875 26.6875,46.15625 C 26.25227,46.014437 25.991207,45.820625 25.84375,45.59375 C 25.696293,45.366875 25.672928,45.1103 25.65625,44.78125 C 25.651736,44.690087 25.689064,44.508062 25.75,44.34375 C 25.810936,44.179437 25.876547,44.032263 25.9375,43.96875 C 25.952739,43.952875 25.963934,43.971675 25.96875,43.96875 C 26.005895,44.071075 26.033504,44.347688 26,44.84375 C 25.97143,45.2624 26.203031,45.568487 26.5625,45.75 C 26.921969,45.931512 27.417034,45.998187 28,46.03125 C 29.165933,46.097362 30.64668,45.954925 32.0625,45.9375 L 32.0625,45.75 C 30.634882,45.767575 29.137705,45.908262 28,45.84375 C 27.431146,45.8115 26.963449,45.717625 26.65625,45.5625 C 26.349052,45.407375 26.195369,45.18635 26.21875,44.84375 C 26.253038,44.336062 26.219681,44.049738 26.15625,43.875 C 26.140392,43.831312 26.154712,43.782537 26.125,43.75 C 26.095289,43.717462 26.016053,43.69315 25.96875,43.6875 z"
         transform="matrix(0.7891863,0,0,0.8,42.439272,-382.57154)"
         id="path2508"
         style="fill:#00549d;fill-opacity:1;stroke:none;stroke-width:0.177;stroke-linecap:butt;stroke-linejoin:miter;stroke-miterlimit:4;stroke-dasharray:none;stroke-opacity:1" />
    </g>
    <g
       transform="matrix(1.267128,0,0,1.25,289.06297,971.45968)"
       id="g2510">
      <path
         d="M 59.96875,2.96875 L 4.375,3 L 3.71875,18.34375 L 60.75,18.3125 L 59.96875,2.96875 z M 33.375,40.9375 L 32.34375,42 L 32,41.96875 L 31.40625,41.96875 C 31.393339,41.975003 31.383886,41.990813 31.34375,42 C 31.111866,42.05125 30.036371,42.052502 29.75,42.15625 C 29.462362,42.25875 29.406249,42.437499 29.40625,42.4375 L 29,42.875 L 28.5,43.15625 L 28.03125,43.3125 L 27.34375,43.40625 L 26.8125,43.40625 L 26.46875,43.65625 L 26.46875,43.96875 L 26.75,44.1875 L 26.8125,44.34375 L 26.8125,44.53125 L 26.875,44.84375 L 27.09375,45.15625 L 27.5,45.25 L 28.03125,45.25 L 28.71875,45.21875 L 29.34375,45.09375 L 30.03125,45 L 30.84375,44.90625 L 31.53125,45.0625 L 31.9375,45.34375 L 32.15625,45.9375 L 32.03125,46.53125 L 31.65625,46.84375 L 31.0625,47.0625 L 30.28125,47.15625 L 29.5625,47.15625 L 29.0625,47.15625 L 28.25,47.0625 L 27.75,47.0625 L 27.34375,47.21875 L 27.28125,47.46875 L 27.40625,47.78125 L 27.84375,47.84375 L 28,48 L 28.09375,48.25 L 28.15625,48.5625 L 28.09375,48.84375 L 28.09375,49.03125 L 27.5,49.6875 L 26.9375,50 L 26.375,49.9375 L 25.875,49.78125 L 24.6875,49.59375 L 25.03125,50.15625 L 25.3125,50.625 L 25.71875,51.03125 L 26.375,51.28125 L 26.75,51.53125 L 26.3125,51.53125 L 25.375,51.53125 L 24.59375,51.34375 L 23.9375,51.1875 L 24.1875,51.65625 L 24.53125,52.0625 L 25.15625,52.46875 L 25.96875,52.875 L 26.59375,53.125 L 26.46875,53.125 L 25.625,52.96875 L 24.46875,52.71875 L 23.4375,52.3125 L 22.34375,51.90625 L 21.59375,51.5 L 20.6875,50.90625 L 20.21875,50.34375 L 20.09375,49.78125 L 20.15625,49.3125 L 20.5,49.0625 L 21.0625,48.5625 L 21.375,48.03125 L 21.375,47.53125 L 21.03125,47.125 L 20.5,46.75 L 20.5,47 L 20.4375,47.40625 L 19.9375,47.625 L 19.625,47.875 L 19.34375,48.15625 L 19.28125,48.4375 L 19.1875,48.90625 L 18.96875,48.75 L 18.5625,48.34375 L 18.03125,48.03125 L 17.625,48 L 17.6875,48.5625 L 17.1875,48.90625 L 17.5,49.125 L 17.75,49.59375 L 17.8125,49.9375 L 17.8125,50.34375 L 17.8125,50.71875 L 17.34375,50.65625 L 16.78125,50.40625 L 16.53125,50.09375 L 16.25,49.75 L 15.84375,49.53125 L 15.21875,49.625 L 14.875,49.8125 L 14.8125,49.84375 L 15.09375,50.1875 L 15.03125,50.71875 L 14.875,51.03125 L 15.34375,51.125 L 15.78125,51.34375 L 16.375,51.5 L 17,51.6875 L 17.125,51.90625 L 16.59375,52 L 15.96875,52 L 15.5625,52 L 15,52 L 15.03125,52.46875 L 14.875,52.71875 L 15.4375,52.96875 L 15.90625,53.03125 L 16.3125,53.09375 L 17.0625,53.03125 L 17.6875,52.875 L 17.6875,53.09375 L 17.28125,53.34375 L 16.875,53.4375 L 16.3125,53.5 L 16.9375,53.75 L 17.5,53.875 L 18.09375,53.8125 L 18.71875,53.65625 L 19.28125,53.4375 L 18.96875,53.875 L 18.3125,54 L 17.5625,54.21875 L 18.09375,54.375 L 19.1875,54.59375 L 19.625,54.53125 L 20.15625,54.4375 L 20.6875,54.21875 L 21.25,53.96875 L 21.125,54.375 L 20.5,54.75 L 19.6875,54.9375 L 20.78125,55.25 L 21.46875,55.25 L 22.0625,55.15625 L 22.46875,54.875 L 22.90625,54.75 L 22.625,55.09375 L 22.125,55.40625 L 23.3125,55.5625 L 22.875,55.625 L 22.5,55.71875 L 21.46875,56.0625 L 20.6875,56.375 L 20.09375,56.78125 L 18.84375,57.53125 L 18.09375,57.5625 L 17.5625,57.40625 L 17.0625,56.84375 L 16.78125,56.28125 L 16.59375,55.8125 L 16.125,55.46875 L 15.5,55.25 L 15.625,55.59375 L 15.4375,56.34375 L 15.6875,56.78125 L 15.6875,57.15625 L 16.0625,57.59375 L 16.46875,58.0625 L 16.8125,58.375 L 16.375,58.4375 L 15.75,58.34375 L 15.21875,58.1875 L 14.59375,58.1875 L 13.84375,58.4375 L 13.25,58.96875 L 13.90625,59 L 13.96875,59 L 14.1875,59.3125 L 14.875,59.375 L 15.625,59.4375 L 16.4375,59.46875 L 17.21875,59.4375 L 16.65625,59.9375 L 16.21875,60.1875 L 15.5625,60.46875 L 14.8125,60.65625 L 14.34375,61.0625 L 14.8125,61.28125 L 14.875,61.28125 L 15.03125,61.53125 L 15.09375,61.78125 L 15.375,61.75 L 15.78125,61.46875 L 16.125,61.28125 L 16.53125,61.125 L 16.9375,61.125 L 16.71875,61.75 L 16.71875,62.15625 L 16.875,62.8125 L 17.1875,62.71875 L 17.75,63.03125 L 17.875,62.78125 L 17.96875,62.34375 L 18.09375,61.90625 L 18.21875,61.375 L 18.375,60.875 L 18.59375,60.40625 L 19.0625,60.09375 L 19.53125,60.03125 L 20.09375,59.84375 L 20.71875,59.375 L 20.5625,59.78125 L 20.375,60.3125 L 20.21875,60.8125 L 20.78125,60.59375 L 21.375,60.3125 L 22,59.71875 L 22.75,59.0625 L 22.40625,59.625 L 22.125,60.15625 L 21.8125,60.59375 L 22.21875,60.46875 L 22.6875,60.15625 L 23.1875,59.6875 L 23.59375,59.125 L 24,58.59375 L 23.84375,59.375 L 23.59375,59.9375 L 24,59.71875 L 24.34375,59.3125 L 24.6875,58.8125 L 25.03125,57.875 L 24.9375,58.4375 L 24.8125,59.15625 L 24.46875,59.71875 L 25,59.46875 L 25.5,59.0625 L 25.96875,58.90625 L 26.1875,58.03125 L 26.4375,57.46875 L 26.625,58.40625 L 26.4375,59.125 L 26.875,58.65625 L 28.15625,59.5625 L 29.3125,59.78125 L 29.53125,59.71875 L 29.1875,60.1875 L 28.9375,60.8125 L 28.875,61.4375 L 29.125,62.25 L 29,62.78125 L 29.0625,63.28125 L 29,63.84375 L 28.59375,64.15625 L 27.84375,64.46875 L 27.15625,64.5625 L 26.375,64.53125 L 25.78125,64.3125 L 25.28125,63.84375 L 24.9375,63.375 L 24.75,62.875 L 24.53125,62.3125 L 24,61.75 L 23.1875,61.4375 L 23.09375,61.75 L 22.8125,62.25 L 23.03125,62.71875 L 23.03125,63.03125 L 23.25,63.5 L 23.53125,64 L 23.84375,64.375 L 23.4375,64.3125 L 22.90625,64.0625 L 22.34375,63.65625 L 21.59375,63.34375 L 20.90625,63.34375 L 20.96875,63.6875 L 20.96875,64.15625 L 20.71875,64.53125 L 21.0625,64.71875 L 21.65625,65 C 21.65625,65 22.171421,65.28125 22.34375,65.28125 C 22.513545,65.28125 22.96875,65.562502 22.96875,65.5625 L 22.625,65.71875 L 22,65.71875 L 21.25,65.5625 L 20.5625,65.5625 L 20.15625,65.6875 L 19.96875,65.75 L 20.34375,65.875 L 20.6875,66.0625 L 20.90625,66.375 L 20.96875,66.90625 L 21.46875,67.03125 L 21.9375,67.15625 L 22.625,67.15625 L 23.15625,67.09375 L 23.78125,66.9375 L 24.8125,66.78125 L 23.875,67.1875 L 23.1875,67.5625 L 22.96875,68.0625 L 23.3125,68.03125 L 23.875,67.96875 L 24.40625,68.1875 L 24.9375,67.90625 L 25.78125,67.8125 L 26.46875,67.71875 L 27.15625,67.90625 L 28.1875,68.125 L 29,68.0625 L 28.375,67.75 L 27.5625,67.3125 L 27.15625,66.9375 L 27.96875,67.3125 L 28.5,67.46875 L 29.125,67.46875 L 29.6875,67.40625 L 30.28125,67.3125 L 29.46875,67.09375 L 28.78125,66.59375 L 28.5,66.28125 L 29.53125,66.6875 L 30.28125,66.6875 L 30.96875,66.53125 L 30.5,66.21875 L 30.09375,65.875 L 30.375,65.65625 L 30.65625,65.25 L 31.25,65.09375 L 32.03125,64.9375 L 32.90625,64.9375 L 33.1875,64.84375 L 33.65625,64.375 L 33.78125,64.0625 L 33.3125,64.25 L 32.78125,64.375 L 32.625,64 L 32.6875,63.4375 L 32.96875,62.625 L 33.46875,62.25 L 34.46875,62.3125 L 35.5,62.3125 L 35.84375,62.34375 L 35.90625,62.5625 L 36.53125,63.09375 L 37.34375,63.65625 L 37.84375,63.96875 L 37.90625,65.25 L 37.625,66.0625 L 37,66.78125 L 36.0625,67.40625 L 35.375,67.625 L 34.96875,67.1875 L 34.625,66.625 L 34.21875,66.0625 L 33.78125,65.71875 L 33.125,65.59375 L 32.4375,65.65625 L 32.75,65.875 L 32.90625,66.21875 L 32.84375,66.6875 L 33.1875,67 L 33.53125,67.40625 L 33.875,68.0625 L 33.125,67.875 L 32.625,67.65625 L 32.09375,67.5 L 31.71875,67.5 L 31.125,67.5 L 31.1875,67.90625 L 31.125,68.375 L 31.8125,68.375 L 32.4375,68.6875 L 32.96875,69 L 33.1875,69.53125 L 32.75,69.5625 L 32.34375,69.46875 L 31.9375,69.25 L 31.34375,69.15625 L 30.5625,69.375 L 29.96875,69.71875 L 30.3125,69.78125 L 30.71875,69.96875 L 30.71875,70.25 L 30.625,70.5 L 31.0625,70.4375 L 31.75,70.34375 L 32.625,70.34375 L 33.65625,70.5 L 33.125,70.53125 L 32.78125,70.84375 L 32.40625,71.15625 L 32.125,71.34375 L 32.4375,71.71875 L 32.34375,72.03125 L 32.84375,72.03125 L 33.375,72 L 33.84375,71.71875 L 34.28125,71.4375 L 34.75,71 L 35.25,70.4375 L 35.78125,70.125 L 36.34375,70.03125 L 36.9375,69.875 L 37.375,69.71875 L 37.90625,69.84375 L 38.53125,69.84375 L 39.125,69.78125 L 39.8125,69.375 L 38.78125,69.21875 L 38.25,68.84375 C 38.25,68.84375 39.043886,68.948747 39.21875,69 C 39.388545,69.05125 39.687501,68.999997 39.6875,69 L 40.25,68.84375 L 40.9375,68.65625 L 41.3125,68.1875 L 40.71875,68.21875 L 39.5,68.125 L 39,67.96875 L 39.6875,67.875 L 40.1875,67.875 L 41.3125,67.75 L 42.21875,67.3125 L 41.9375,67.40625 L 41.40625,67.34375 C 41.40625,67.34375 40.841714,67.261252 40.4375,67.15625 L 41,67.09375 L 41.6875,67 L 42.34375,66.84375 L 42.78125,66.375 L 43.1875,65.875 L 42.4375,65.96875 L 41.75,66 L 42.78125,65.875 L 43.125,65.4375 L 43.46875,65.125 L 43.59375,64.6875 L 43.59375,63.8125 L 43.25,64 L 42.84375,64.25 L 42.5625,64.0625 L 42.625,63.4375 L 42.625,62.875 L 42.4375,62.21875 L 42.28125,61.21875 L 43.34375,61.4375 L 44.34375,61.28125 L 45.09375,61.0625 L 45.5,60.5625 L 45.71875,59.9375 L 45.84375,59.4375 L 45.78125,58.8125 L 45.59375,58.28125 L 45.4375,57.65625 L 44.90625,57 L 44.5625,56.375 L 43.9375,55.78125 L 43.46875,55.3125 L 42.84375,54.78125 L 42.03125,54.0625 L 41.40625,53.4375 L 40.59375,52.6875 L 40.25,52.21875 L 39.8125,51.6875 L 39.34375,51.0625 L 39.15625,50.46875 L 39.34375,49.84375 L 39.625,49.3125 L 40.0625,49.0625 L 40.71875,49.03125 L 41.59375,49.1875 L 42.71875,49.625 L 43.59375,50.40625 L 44.34375,51.125 L 44.90625,51.8125 L 45.375,52.375 L 45.875,52.8125 L 46.40625,53.34375 L 46.625,53.6875 L 46.75,53.96875 L 46.53125,54.46875 L 45.9375,54.46875 L 45.5,54.0625 L 45.15625,53.4375 L 45.03125,54.28125 L 45.25,54.6875 L 45.84375,55.09375 L 46.40625,55.1875 L 46.40625,55.71875 L 46.40625,56.4375 L 46.625,57.15625 L 46.96875,57.65625 L 47.78125,58.1875 L 48.46875,58.6875 L 49.5,58.90625 L 50.4375,59 L 51.125,58.6875 L 51.8125,58.59375 L 52.5,57.96875 L 51.8125,58.28125 L 51,58.375 L 51.6875,57.96875 L 52.375,57.5625 L 52.625,57.0625 L 52.9375,56.34375 L 52.9375,55.59375 L 52.71875,54.875 L 52.03125,54.0625 L 52.375,54.78125 L 52.375,55.5 L 52.375,56.34375 L 51.8125,56.9375 L 51.90625,56.53125 L 51.5625,55.90625 L 51.25,55.5 L 51.25,56.125 L 50.90625,56.9375 L 50.4375,57.375 L 49.75,57.5625 L 49.0625,57.15625 L 49.0625,56.65625 L 49.0625,56.03125 L 48.9375,55.3125 L 48.25,54.46875 L 48.8125,55 L 49.5,55 L 50.09375,54.78125 L 50.4375,54.375 L 50.4375,53.875 L 49.84375,54.0625 L 49.28125,54.0625 L 48.375,53.65625 L 47.6875,53.25 L 46.875,52.625 L 46.28125,51.90625 L 45.71875,51.0625 L 44.90625,50.34375 L 44.125,49.3125 L 43.3125,48.8125 L 42.28125,48.28125 L 41.375,48 L 40.53125,47.875 L 39.625,47.875 L 38.9375,48.09375 L 38.25,48.5 L 37.90625,49.125 L 37.6875,49.84375 L 37.5625,50.5625 L 37.5625,51.28125 L 37.90625,52.09375 L 38.375,52.9375 L 39.0625,53.75 L 40.4375,54.78125 L 41.6875,55.71875 L 42.96875,56.65625 L 43.75,57.46875 L 44.46875,58.28125 L 44.6875,59.125 L 44.46875,59.84375 L 44,60.25 L 43.3125,60.25 L 42.375,60.03125 L 42.03125,59.71875 L 41.6875,59.21875 L 41.46875,58.59375 L 41.125,57.96875 L 40.53125,57.375 L 39.625,56.75 L 38.9375,56.53125 L 38.125,56.34375 L 37.34375,56.125 L 36.3125,55.71875 L 35.5,55.3125 L 34.5625,54.78125 L 34.125,54.15625 L 33.78125,53.5625 L 33.4375,53.125 L 32.96875,52.625 L 34.125,52.71875 L 34.8125,52.71875 L 35.96875,52.40625 L 35.375,52.3125 L 34.5625,52.09375 L 33.78125,51.59375 L 33.375,51.125 L 33.1875,50.65625 L 33.875,51.0625 L 34.5625,51.28125 L 35.28125,51.4375 L 36.40625,51.28125 L 35.84375,51.1875 L 34.90625,50.78125 L 34.34375,50.34375 L 34,49.75 L 33.875,49.3125 L 34.5625,49.9375 L 35.3125,50.1875 L 35.96875,50.15625 L 36.65625,49.84375 L 36.0625,49.625 L 35.59375,49.3125 L 35.15625,48.8125 L 36.65625,49.03125 L 37,48.5 L 35.96875,48.1875 L 35.3125,47.71875 L 35.09375,47.34375 L 35.375,47.46875 L 35.46875,47.65625 L 35.59375,47.71875 L 35.84375,47.875 L 36.34375,47.84375 L 37.09375,47.71875 L 37.5,47.53125 L 37.78125,47.125 L 36.8125,47.21875 L 36.3125,47.125 L 35.09375,46.4375 L 35.4375,46.59375 L 36.1875,46.84375 L 36.9375,46.84375 L 37.59375,46.6875 L 37.9375,46.25 L 38.125,45.875 L 38.125,45.25 L 37.96875,44.6875 L 37.6875,45 L 37.34375,45.40625 L 36.9375,45.625 L 36.53125,45.78125 L 35.90625,45.5625 L 35.59375,45.40625 L 36.1875,45.34375 L 36.46875,45.21875 L 36.59375,44.90625 L 36.1875,44.90625 L 35.71875,44.9375 L 35.09375,44.78125 L 35.21875,44.625 L 35.71875,44.375 L 36.0625,44.03125 L 35.65625,44.03125 L 34.875,43.96875 L 34.46875,43.75 L 35.03125,43.4375 L 35.25,43 L 34.75,43.09375 L 34.125,42.9375 L 34.6875,42.625 L 33.78125,42.46875 L 33.4375,42.3125 L 33.375,40.9375 z"
         transform="matrix(0.7891863,0,0,0.8,42.439272,-382.57154)"
         id="path2512"
         style="fill:#ef3e42;fill-opacity:1;fill-rule:nonzero;stroke:none" />
    </g>
    <g
       transform="matrix(1.267128,0,0,1.25,289.06297,971.45968)"
       id="g2514">
      <path
         d="M 68.455,-340.476 L 68.82,-340.061 L 69.091,-339.732 L 69.361,-339.238 L 69.725,-338.742 L 70.45,-338.332 L 71.086,-338 L 71.903,-337.672 L 72.536,-337.507 L 73.17,-337.342 L 73.714,-337.178 L 74.437,-336.682 L 74.89,-336.189 L 75.164,-335.695 L 75.345,-335.199 L 75.619,-334.786 L 75.89,-334.541 L 76.619,-334.376 L 77.161,-334.376 L 77.523,-334.705 L 77.702,-335.282 L 77.523,-335.941 L 76.976,-336.602 L 76.345,-337.259 L 75.345,-338 L 74.347,-338.742 L 73.261,-339.568 L 72.72,-340.227 L 72.352,-340.888 L 72.082,-341.546 L 72.082,-342.122 L 72.174,-342.7 L 72.352,-343.276 L 72.627,-343.77 L 73.17,-344.103 L 73.714,-344.265 L 74.437,-344.265 L 75.096,-344.162 L 75.8,-343.936 L 76.619,-343.524 L 77.25,-343.113 L 77.883,-342.286 L 78.519,-341.71 L 78.972,-341.052 L 79.424,-340.476 L 80.062,-339.98 L 80.604,-339.649 L 81.329,-339.319 L 81.782,-339.319 L 82.235,-339.483 L 82.235,-339.073 L 81.965,-338.742 L 81.508,-338.579 L 80.969,-338.579 L 80.513,-338.992 L 81.058,-338.332 L 81.148,-337.754 L 81.148,-337.259 L 81.148,-336.847 L 81.694,-336.519 L 82.235,-336.682 L 82.602,-337.011 L 82.874,-337.672 L 82.874,-338.167 L 83.144,-337.835 L 83.412,-337.342 L 83.324,-337.011 L 83.053,-336.682 L 83.324,-337.011 L 83.778,-337.507 L 83.778,-338.167 L 83.778,-338.742 L 83.507,-339.319 L 84.048,-338.662 L 84.227,-338.085 L 84.227,-337.507 L 83.958,-336.93 L 83.778,-336.519 L 83.232,-336.189 L 82.69,-335.86 L 83.324,-335.941 L 83.869,-336.189 L 83.324,-335.695 L 82.781,-335.612 L 82.235,-335.365 L 81.508,-335.447 L 80.695,-335.612 L 80.152,-336.023 L 79.515,-336.437 L 79.246,-336.847 L 79.062,-337.425 L 79.062,-338 L 79.062,-338.415 L 78.608,-338.497 L 78.157,-338.827 L 77.976,-339.153 L 78.065,-339.815 L 78.337,-339.319 L 78.702,-338.992 L 79.156,-338.992 L 79.336,-339.403 L 79.246,-339.61 L 79.062,-339.897 L 78.654,-340.31 L 78.249,-340.682 L 77.883,-341.133 L 77.431,-341.669 L 76.842,-342.246 L 76.16,-342.865 L 75.254,-343.233 L 74.578,-343.359 L 74.053,-343.317 L 73.714,-343.113 L 73.489,-342.7 L 73.352,-342.205 L 73.489,-341.71 L 73.849,-341.215 L 74.212,-340.805 L 74.485,-340.433 L 75.121,-339.815 L 75.619,-339.319 L 76.254,-338.742 L 76.752,-338.332 L 77.115,-337.958 L 77.612,-337.465 L 77.883,-336.972 L 78.291,-336.437 L 78.427,-335.941 L 78.564,-335.529 L 78.608,-335.033 L 78.519,-334.622 L 78.337,-334.126 L 78.02,-333.716 L 77.431,-333.551 L 76.637,-333.428 L 75.8,-333.592 L 75.936,-332.809 L 76.07,-332.274 L 76.07,-331.819 L 76.028,-331.327 L 76.254,-331.16 L 76.572,-331.367 L 76.842,-331.531 L 76.842,-330.831 L 76.752,-330.461 L 76.478,-330.214 L 76.208,-329.883 L 75.391,-329.76 L 75.936,-329.801 L 76.526,-329.883 L 76.208,-329.471 L 75.846,-329.102 L 75.345,-328.978 L 74.804,-328.893 L 74.347,-328.855 C 74.666,-328.771 75.121,-328.687 75.121,-328.687 L 75.528,-328.647 L 75.752,-328.73 L 75.031,-328.36 L 74.167,-328.277 L 73.76,-328.277 L 73.219,-328.194 L 73.624,-328.071 L 74.578,-327.988 L 75.031,-328.028 L 74.756,-327.657 L 74.212,-327.493 L 73.76,-327.37 C 73.76,-327.37 73.533,-327.329 73.399,-327.37 C 73.261,-327.411 72.627,-327.493 72.627,-327.493 L 73.035,-327.204 L 73.849,-327.082 L 73.308,-326.752 L 72.852,-326.709 L 72.352,-326.709 L 71.945,-326.792 L 71.583,-326.669 L 71.131,-326.544 L 70.68,-326.462 L 70.268,-326.214 L 69.861,-325.762 L 69.499,-325.431 L 69.137,-325.186 L 68.774,-324.98 L 68.366,-324.938 L 67.958,-324.938 L 68.047,-325.186 L 67.798,-325.493 L 68.025,-325.639 L 68.32,-325.906 L 68.592,-326.135 L 69.001,-326.174 L 68.185,-326.299 L 67.503,-326.299 L 66.959,-326.214 L 66.598,-326.174 L 66.689,-326.379 L 66.689,-326.587 L 66.369,-326.752 L 66.101,-326.792 L 66.553,-327.082 L 67.187,-327.247 L 67.641,-327.165 L 67.958,-326.999 L 68.273,-326.916 L 68.638,-326.958 L 68.455,-327.37 L 68.047,-327.618 L 67.55,-327.866 L 67.004,-327.866 L 67.052,-328.236 L 67.004,-328.566 L 67.46,-328.566 L 67.775,-328.566 L 68.185,-328.441 L 68.592,-328.277 L 69.182,-328.113 L 68.909,-328.647 L 68.638,-328.978 L 68.366,-329.225 L 68.41,-329.593 L 68.273,-329.883 L 68.047,-330.049 L 68.592,-330.088 L 69.091,-330.008 L 69.453,-329.717 L 69.77,-329.264 L 70.043,-328.812 L 70.359,-328.482 L 70.904,-328.647 L 71.631,-329.141 L 72.128,-329.717 L 72.352,-330.377 L 72.308,-331.409 L 71.903,-331.655 L 71.266,-332.109 L 70.767,-332.522 L 70.723,-332.688 L 70.45,-332.728 L 69.633,-332.728 L 68.864,-332.766 L 68.455,-332.481 L 68.229,-331.819 L 68.185,-331.367 L 68.32,-331.078 L 68.729,-331.16 L 69.091,-331.327 L 69.001,-331.078 L 68.638,-330.707 L 68.41,-330.624 L 67.73,-330.624 L 67.096,-330.501 L 66.643,-330.377 L 66.416,-330.049 L 66.191,-329.883 L 66.507,-329.593 L 66.87,-329.349 L 66.327,-329.225 L 65.736,-329.225 L 64.921,-329.555 L 65.147,-329.308 L 65.691,-328.893 L 66.327,-328.73 L 65.872,-328.647 L 65.418,-328.607 L 64.921,-328.607 L 64.512,-328.73 L 63.879,-329.018 L 64.194,-328.73 L 64.829,-328.36 L 65.328,-328.113 L 64.696,-328.071 L 63.879,-328.236 L 63.335,-328.399 L 62.79,-328.318 L 62.11,-328.236 L 61.702,-328.028 L 61.293,-328.194 L 60.841,-328.152 L 60.57,-328.113 L 60.749,-328.524 L 61.293,-328.812 L 62.019,-329.141 L 61.203,-329.018 L 60.705,-328.893 L 60.298,-328.855 L 59.753,-328.855 L 59.391,-328.937 L 58.981,-329.059 L 58.936,-329.471 L 58.757,-329.717 L 58.483,-329.883 L 58.21,-329.966 L 58.343,-330.014 L 58.666,-330.13 L 59.209,-330.13 L 59.798,-330.008 L 60.298,-330.008 L 60.57,-330.13 C 60.57,-330.13 60.205,-330.335 60.071,-330.335 C 59.935,-330.335 59.526,-330.583 59.526,-330.583 L 59.073,-330.791 L 58.801,-330.954 L 58.981,-331.244 L 58.981,-331.614 L 58.936,-331.902 L 59.481,-331.902 L 60.071,-331.655 L 60.524,-331.327 L 60.93,-331.12 L 61.249,-331.078 L 61.021,-331.367 L 60.797,-331.78 L 60.615,-332.149 L 60.615,-332.397 L 60.431,-332.766 L 60.66,-333.181 L 60.749,-333.428 L 61.385,-333.181 L 61.793,-332.728 L 61.974,-332.274 L 62.11,-331.862 L 62.381,-331.492 L 62.79,-331.12 L 63.244,-330.954 L 63.879,-330.916 L 64.422,-330.998 L 65.01,-331.244 L 65.328,-331.492 L 65.373,-331.944 L 65.328,-332.357 L 65.418,-332.766 L 65.239,-333.428 L 65.284,-333.922 L 65.465,-334.417 L 65.736,-334.786 L 65.567,-334.75 L 64.649,-334.911 L 63.65,-335.653 L 63.304,-335.277 L 63.447,-335.854 L 63.295,-336.602 L 63.107,-336.147 L 62.926,-335.447 L 62.562,-335.323 L 62.157,-334.995 L 61.745,-334.786 L 62.019,-335.242 L 62.11,-335.816 L 62.201,-336.271 L 61.928,-335.529 L 61.657,-335.117 L 61.385,-334.786 L 61.067,-334.622 L 61.249,-335.076 L 61.385,-335.695 L 61.067,-335.282 L 60.749,-334.828 L 60.344,-334.457 L 59.978,-334.209 L 59.663,-334.086 L 59.889,-334.457 L 60.118,-334.869 L 60.386,-335.323 L 59.798,-334.786 L 59.301,-334.333 L 58.845,-334.086 L 58.391,-333.922 L 58.529,-334.333 L 58.666,-334.749 L 58.801,-335.076 L 58.302,-334.705 L 57.849,-334.541 L 57.486,-334.499 L 57.124,-334.252 L 56.943,-333.881 L 56.807,-333.469 L 56.716,-333.056 L 56.625,-332.688 L 56.535,-332.335 L 56.442,-332.149 L 55.992,-332.397 L 55.765,-332.315 L 55.629,-332.851 L 55.629,-333.181 L 55.808,-333.674 L 55.493,-333.674 L 55.175,-333.551 L 54.902,-333.387 L 54.585,-333.181 L 54.358,-333.138 L 54.313,-333.344 L 54.177,-333.551 L 54.134,-333.551 L 53.769,-333.716 L 54.134,-334.046 L 54.721,-334.209 L 55.24,-334.417 L 55.583,-334.622 L 56.036,-335.033 L 55.401,-334.995 L 54.766,-335.033 L 54.177,-335.076 L 53.633,-335.117 L 53.451,-335.365 L 53.407,-335.365 L 52.908,-335.404 L 53.364,-335.816 L 53.951,-336.023 L 54.449,-336.023 L 54.857,-335.899 L 55.356,-335.816 L 55.719,-335.86 L 55.446,-336.127 L 55.107,-336.496 L 54.812,-336.847 L 54.812,-337.137 L 54.631,-337.507 L 54.766,-338.085 L 54.678,-338.372 L 55.175,-338.207 L 55.538,-337.921 L 55.671,-337.549 L 55.901,-337.093 L 56.308,-336.643 L 56.716,-336.519 L 57.306,-336.558 L 58.302,-337.137 L 58.757,-337.465 L 59.391,-337.715 L 60.205,-338 L 60.496,-338.063 L 60.841,-338.125 L 59.889,-338.249 L 60.298,-338.497 L 60.524,-338.784 L 60.16,-338.662 L 59.844,-338.454 L 59.391,-338.372 L 58.845,-338.372 L 57.984,-338.621 L 58.621,-338.784 L 59.118,-339.073 L 59.209,-339.403 L 58.757,-339.197 L 58.347,-339.031 L 57.939,-338.948 L 57.579,-338.908 L 56.716,-339.073 L 56.308,-339.197 L 56.896,-339.362 L 57.397,-339.483 L 57.668,-339.815 L 57.214,-339.649 L 56.716,-339.526 L 56.261,-339.483 L 55.808,-339.568 L 55.31,-339.774 L 55.765,-339.815 L 56.08,-339.897 L 56.399,-340.104 L 56.399,-340.268 L 55.901,-340.145 L 55.31,-340.104 L 54.993,-340.145 L 54.631,-340.187 L 54.177,-340.392 L 54.313,-340.598 L 54.269,-340.967 L 54.721,-340.967 L 55.037,-340.967 L 55.538,-340.967 L 55.946,-341.052 L 55.854,-341.215 L 55.356,-341.381 L 54.902,-341.504 L 54.54,-341.669 L 54.177,-341.751 L 54.313,-341.999 L 54.358,-342.41 L 54.134,-342.7 L 54.175,-342.722 L 54.449,-342.865 L 54.948,-342.947 L 55.265,-342.782 L 55.493,-342.494 L 55.671,-342.246 L 56.127,-342.042 L 56.488,-341.999 L 56.488,-342.286 L 56.488,-342.618 L 56.442,-342.905 L 56.261,-343.276 L 55.992,-343.442 L 56.399,-343.73 L 56.352,-344.183 L 56.671,-344.14 L 57.078,-343.895 L 57.397,-343.564 L 57.579,-343.442 L 57.668,-343.812 L 57.712,-344.059 L 57.939,-344.265 L 58.166,-344.471 L 58.573,-344.636 L 58.621,-344.965 L 58.621,-345.172 L 59.029,-344.883 L 59.301,-344.554 L 59.301,-344.14 L 59.073,-343.73 L 58.621,-343.317 L 58.347,-343.113 L 58.302,-342.742 L 58.391,-342.286 L 58.757,-341.835 L 59.481,-341.381 L 60.071,-341.052 L 60.93,-340.721 L 61.745,-340.392 L 62.655,-340.187 L 63.323,-340.072 L 63.417,-340.061 L 62.926,-340.268 L 62.291,-340.598 L 61.793,-340.928 L 61.521,-341.237 L 61.34,-341.63 L 61.837,-341.504 L 62.472,-341.338 L 63.198,-341.338 L 63.561,-341.338 L 63.244,-341.546 L 62.744,-341.751 L 62.427,-342.081 L 62.201,-342.451 L 61.928,-342.905 L 62.856,-342.742 L 63.244,-342.618 L 63.697,-342.577 L 64.15,-342.823 L 64.603,-343.359 L 64.62,-343.502 L 64.649,-343.73 L 64.603,-343.975 L 64.535,-344.162 L 64.422,-344.307 L 64.059,-344.345 L 63.968,-344.594 L 64.013,-344.803 L 64.332,-344.925 L 64.738,-344.925 L 65.373,-344.842 L 65.779,-344.842 L 66.327,-344.842 L 66.959,-344.925 L 67.415,-345.087 L 67.73,-345.337 L 67.821,-345.832 L 67.641,-346.285 L 67.324,-346.531 L 66.78,-346.654 L 66.144,-346.574 L 65.599,-346.492 L 65.101,-346.409 L 64.558,-346.367 L 64.15,-346.367 L 63.831,-346.448 L 63.65,-346.697 L 63.606,-346.943 L 63.606,-347.109 L 63.561,-347.233 L 63.335,-347.397 L 63.335,-347.644 L 63.606,-347.85 L 64.013,-347.85 L 64.558,-347.934 L 64.921,-348.058 L 65.328,-348.263 L 65.646,-348.634 C 65.646,-348.634 65.691,-348.757 65.918,-348.839 C 66.144,-348.922 67.004,-348.922 67.187,-348.963 C 67.368,-349.005 67.143,-349.005 67.143,-349.005 L 67.688,-349.005 L 67.958,-348.963 L 68.774,-349.829 L 68.82,-348.715 L 69.091,-348.591 L 69.816,-348.468 L 69.361,-348.221 L 69.861,-348.098 L 70.268,-348.182 L 70.089,-347.81 L 69.633,-347.561 L 69.952,-347.397 L 70.589,-347.355 L 70.904,-347.355 L 70.632,-347.068 L 70.224,-346.861 L 70.133,-346.738 L 70.632,-346.614 L 70.994,-346.654 L 71.312,-346.654 L 71.224,-346.409 L 70.994,-346.285 L 70.541,-346.243 L 70.767,-346.123 L 71.266,-345.955 L 71.583,-346.079 L 71.903,-346.243 L 72.174,-346.574 L 72.398,-346.822 L 72.536,-346.367 L 72.536,-345.872 L 72.377,-345.565 L 72.106,-345.234 L 71.583,-345.087 L 70.994,-345.087 L 70.407,-345.297 L 70.133,-345.419 L 71.086,-344.883 L 71.494,-344.803 L 72.244,-344.862 L 72.036,-344.554 L 71.721,-344.389 L 71.131,-344.307 L 70.723,-344.265 L 70.541,-344.389 L 70.44,-344.439 L 70.367,-344.586 L 70.127,-344.693 L 70.315,-344.405 L 70.813,-344.019 L 71.631,-343.77 L 71.357,-343.359 L 70.179,-343.524 L 70.541,-343.113 L 70.904,-342.865 L 71.357,-342.7 L 70.813,-342.451 L 70.315,-342.41 L 69.725,-342.618 L 69.182,-343.113 L 69.272,-342.782 L 69.544,-342.286 L 69.997,-341.957 L 70.723,-341.63 L 71.177,-341.546 L 70.292,-341.422 L 69.725,-341.546 L 69.182,-341.71 L 68.638,-342.042 L 68.774,-341.669 L 69.091,-341.299 L 69.725,-340.888 L 70.359,-340.721 L 70.813,-340.638 L 69.905,-340.392 L 69.361,-340.392 L 68.455,-340.476"
         id="path2516"
         style="fill:none;stroke:#000000;stroke-width:0.087;stroke-linecap:butt;stroke-linejoin:miter;stroke-miterlimit:10;stroke-dasharray:none;stroke-opacity:1" />
    </g>
    <g
       transform="matrix(1.267128,0,0,1.25,289.06297,971.45968)"
       id="g2518">
      <path
         d="M 64.375,-346.367 L 64.512,-345.955 L 64.696,-346.367"
         id="path2520"
         style="fill:#000000;fill-opacity:1;fill-rule:nonzero;stroke:none" />
    </g>
    <g
       transform="matrix(1.267128,0,0,1.25,289.06297,971.45968)"
       id="g2522">
      <path
         d="M 64.375,-346.367 L 64.512,-345.955 L 64.696,-346.367"
         id="path2524"
         style="fill:none;stroke:#000000;stroke-width:0.043;stroke-linecap:butt;stroke-linejoin:miter;stroke-miterlimit:10;stroke-dasharray:none;stroke-opacity:1" />
    </g>
    <g
       transform="matrix(1.267128,0,0,1.25,289.06297,971.45968)"
       id="g2526">
      <path
         d="M 65.079,-346.409 L 65.239,-345.997 L 65.373,-346.448"
         id="path2528"
         style="fill:#000000;fill-opacity:1;fill-rule:nonzero;stroke:none" />
    </g>
    <g
       transform="matrix(1.267128,0,0,1.25,289.06297,971.45968)"
       id="g2530">
      <path
         d="M 65.079,-346.409 L 65.239,-345.997 L 65.373,-346.448"
         id="path2532"
         style="fill:none;stroke:#000000;stroke-width:0.043;stroke-linecap:butt;stroke-linejoin:miter;stroke-miterlimit:10;stroke-dasharray:none;stroke-opacity:1" />
    </g>
    <g
       transform="matrix(1.267128,0,0,1.25,289.06297,971.45968)"
       id="g2534">
      <path
         d="M 65.848,-346.531 L 65.962,-346.079 L 66.212,-346.574"
         id="path2536"
         style="fill:#000000;fill-opacity:1;fill-rule:nonzero;stroke:none" />
    </g>
    <g
       transform="matrix(1.267128,0,0,1.25,289.06297,971.45968)"
       id="g2538">
      <path
         d="M 65.848,-346.531 L 65.962,-346.079 L 66.212,-346.574"
         id="path2540"
         style="fill:none;stroke:#000000;stroke-width:0.043;stroke-linecap:butt;stroke-linejoin:miter;stroke-miterlimit:10;stroke-dasharray:none;stroke-opacity:1" />
    </g>
    <g
       transform="matrix(1.267128,0,0,1.25,289.06297,971.45968)"
       id="g2542">
      <path
         d="M 66.575,-346.614 L 66.689,-346.16 L 66.825,-346.574"
         id="path2544"
         style="fill:#000000;fill-opacity:1;fill-rule:nonzero;stroke:none" />
    </g>
    <g
       transform="matrix(1.267128,0,0,1.25,289.06297,971.45968)"
       id="g2546">
      <path
         d="M 66.575,-346.614 L 66.689,-346.16 L 66.825,-346.574"
         id="path2548"
         style="fill:none;stroke:#000000;stroke-width:0.043;stroke-linecap:butt;stroke-linejoin:miter;stroke-miterlimit:10;stroke-dasharray:none;stroke-opacity:1" />
    </g>
    <g
       transform="matrix(1.267128,0,0,1.25,289.06297,971.45968)"
       id="g2550">
      <path
         d="M 64.443,-344.925 L 64.512,-345.214 L 64.738,-344.925"
         id="path2552"
         style="fill:#000000;fill-opacity:1;fill-rule:nonzero;stroke:none" />
    </g>
    <g
       transform="matrix(1.267128,0,0,1.25,289.06297,971.45968)"
       id="g2554">
      <path
         d="M 64.443,-344.925 L 64.512,-345.214 L 64.738,-344.925"
         id="path2556"
         style="fill:none;stroke:#000000;stroke-width:0.043;stroke-linecap:butt;stroke-linejoin:miter;stroke-miterlimit:10;stroke-dasharray:none;stroke-opacity:1" />
    </g>
    <g
       transform="matrix(1.267128,0,0,1.25,289.06297,971.45968)"
       id="g2558">
      <path
         d="M 65.147,-344.842 L 65.284,-345.214 L 65.555,-344.842"
         id="path2560"
         style="fill:#000000;fill-opacity:1;fill-rule:nonzero;stroke:none" />
    </g>
    <g
       transform="matrix(1.267128,0,0,1.25,289.06297,971.45968)"
       id="g2562">
      <path
         d="M 65.147,-344.842 L 65.284,-345.214 L 65.555,-344.842"
         id="path2564"
         style="fill:none;stroke:#000000;stroke-width:0.043;stroke-linecap:butt;stroke-linejoin:miter;stroke-miterlimit:10;stroke-dasharray:none;stroke-opacity:1" />
    </g>
    <g
       transform="matrix(1.267128,0,0,1.25,289.06297,971.45968)"
       id="g2566">
      <path
         d="M 66.101,-344.842 L 66.169,-345.254 L 66.507,-344.883"
         id="path2568"
         style="fill:#000000;fill-opacity:1;fill-rule:nonzero;stroke:none" />
    </g>
    <g
       transform="matrix(1.267128,0,0,1.25,289.06297,971.45968)"
       id="g2570">
      <path
         d="M 66.101,-344.842 L 66.169,-345.254 L 66.507,-344.883"
         id="path2572"
         style="fill:none;stroke:#000000;stroke-width:0.043;stroke-linecap:butt;stroke-linejoin:miter;stroke-miterlimit:10;stroke-dasharray:none;stroke-opacity:1" />
    </g>
    <g
       transform="matrix(1.267128,0,0,1.25,289.06297,971.45968)"
       id="g2574">
      <path
         d="M 66.78,-345.254 L 66.801,-344.925 L 67.075,-345.007 L 66.78,-345.254 z"
         id="path2576"
         style="fill:#000000;fill-opacity:1;fill-rule:nonzero;stroke:none" />
    </g>
    <g
       transform="matrix(1.267128,0,0,1.25,289.06297,971.45968)"
       id="g2578">
      <path
         d="M 66.78,-345.254 L 66.801,-344.925 L 67.075,-345.007 L 66.78,-345.254 z"
         id="path2580"
         style="fill:none;stroke:#000000;stroke-width:0.043;stroke-linecap:butt;stroke-linejoin:miter;stroke-miterlimit:10;stroke-dasharray:none;stroke-opacity:1" />
    </g>
    <g
       transform="matrix(1.267128,0,0,1.25,289.06297,971.45968)"
       id="g2582">
      <path
         d="M 69.977,-344.641 L 69.725,-344.803 L 69.816,-344.511 L 70.043,-344.183 L 70.224,-343.856 L 69.816,-343.975 L 69.409,-344.307 L 69.228,-344.594 L 69.046,-344.965 L 69.204,-344.329 L 69.182,-344.039 L 69.112,-343.812 L 68.955,-343.546 L 68.478,-343.193 L 68.523,-343.524 L 68.569,-343.957 L 68.547,-344.307 L 68.41,-344.883 L 68.455,-344.471 L 68.41,-343.975 L 68.273,-343.606 L 68.139,-343.317 L 67.706,-342.865 L 67.775,-343.564 L 67.775,-343.936 L 67.73,-344.265 L 67.55,-343.398 L 67.279,-342.823 L 67.096,-342.577 L 66.622,-342.227 L 66.643,-342.494 L 66.733,-342.905 L 66.825,-343.359 L 66.87,-343.647 L 66.553,-342.989 L 66.281,-342.41 L 65.962,-342.122 L 65.599,-341.794 L 65.646,-342.205 L 65.779,-342.782 L 65.826,-343.193 L 65.509,-342.823 L 65.01,-342.286 L 64.696,-342.042 L 64.829,-342.494 L 64.921,-342.823 L 65.101,-343.276 L 65.239,-343.647 L 65.055,-343.524 L 64.785,-343.359 L 64.603,-343.359 L 64.62,-343.502"
         id="path2584"
         style="fill:#ef3e42;fill-opacity:1;fill-rule:nonzero;stroke:none" />
    </g>
    <g
       transform="matrix(1.267128,0,0,1.25,289.06297,971.45968)"
       id="g2586">
      <path
         d="M 69.977,-344.641 L 69.725,-344.803 L 69.816,-344.511 L 70.043,-344.183 L 70.224,-343.856 L 69.816,-343.975 L 69.409,-344.307 L 69.228,-344.594 L 69.046,-344.965 L 69.204,-344.329 L 69.182,-344.039 L 69.112,-343.812 L 68.955,-343.546 L 68.478,-343.193 L 68.523,-343.524 L 68.569,-343.957 L 68.547,-344.307 L 68.41,-344.883 L 68.455,-344.471 L 68.41,-343.975 L 68.273,-343.606 L 68.139,-343.317 L 67.706,-342.865 L 67.775,-343.564 L 67.775,-343.936 L 67.73,-344.265 L 67.55,-343.398 L 67.279,-342.823 L 67.096,-342.577 L 66.622,-342.227 L 66.643,-342.494 L 66.733,-342.905 L 66.825,-343.359 L 66.87,-343.647 L 66.553,-342.989 L 66.281,-342.41 L 65.962,-342.122 L 65.599,-341.794 L 65.646,-342.205 L 65.779,-342.782 L 65.826,-343.193 L 65.509,-342.823 L 65.01,-342.286 L 64.696,-342.042 L 64.829,-342.494 L 64.921,-342.823 L 65.101,-343.276 L 65.239,-343.647 L 65.055,-343.524 L 64.785,-343.359 L 64.603,-343.359 L 64.62,-343.502"
         id="path2588"
         style="fill:none;stroke:#000000;stroke-width:0.087;stroke-linecap:butt;stroke-linejoin:miter;stroke-miterlimit:10;stroke-dasharray:none;stroke-opacity:1" />
    </g>
    <g
       transform="matrix(1.267128,0,0,1.25,289.06297,971.45968)"
       id="g2590">
      <path
         d="M 66.281,-348.305 L 66.461,-348.139 L 66.78,-348.058 L 67.143,-347.974 L 67.46,-347.81 L 67.279,-347.644 L 66.78,-347.603 L 66.369,-347.561 L 66.327,-347.233"
         id="path2592"
         style="fill:#000000;fill-opacity:1;fill-rule:nonzero;stroke:none" />
    </g>
    <g
       transform="matrix(1.267128,0,0,1.25,289.06297,971.45968)"
       id="g2594">
      <path
         d="M 66.281,-348.305 L 66.461,-348.139 L 66.78,-348.058 L 67.143,-347.974 L 67.46,-347.81 L 67.279,-347.644 L 66.78,-347.603 L 66.369,-347.561 L 66.327,-347.233"
         id="path2596"
         style="fill:none;stroke:#000000;stroke-width:0.043;stroke-linecap:butt;stroke-linejoin:miter;stroke-miterlimit:10;stroke-dasharray:none;stroke-opacity:1" />
    </g>
    <g
       transform="matrix(1.267128,0,0,1.25,289.06297,971.45968)"
       id="g2598">
      <path
         d="M 67.324,-347.892 L 66.553,-348.016 L 66.461,-347.892 L 66.461,-347.727 L 66.575,-347.583 L 67.004,-347.624 L 67.279,-347.644 L 67.324,-347.892 L 67.143,-347.974 L 67.324,-347.892 z"
         id="path2600"
         style="fill:#000000;fill-opacity:1;fill-rule:nonzero;stroke:none" />
    </g>
    <g
       transform="matrix(1.267128,0,0,1.25,289.06297,971.45968)"
       id="g2602">
      <path
         d="M 68.501,-349.17 L 68.273,-348.839 L 68.547,-348.757 L 68.501,-349.17 z"
         id="path2604"
         style="fill:#000000;fill-opacity:1;fill-rule:nonzero;stroke:none" />
    </g>
    <g
       transform="matrix(1.267128,0,0,1.25,289.06297,971.45968)"
       id="g2606">
      <path
         d="M 68.501,-349.17 L 68.273,-348.839 L 68.547,-348.757 L 68.501,-349.17 z"
         id="path2608"
         style="fill:none;stroke:#000000;stroke-width:0.043;stroke-linecap:butt;stroke-linejoin:miter;stroke-miterlimit:10;stroke-dasharray:none;stroke-opacity:1" />
    </g>
    <g
       transform="matrix(1.267128,0,0,1.25,289.06297,971.45968)"
       id="g2610">
      <path
         d="M 64.935,-338.237 L 64.935,-337.58 L 64.843,-337.084 L 64.549,-336.548 L 64.118,-336.012 L 63.801,-335.723"
         id="path2612"
         style="fill:#ef3e42;fill-opacity:1;fill-rule:nonzero;stroke:none" />
    </g>
    <g
       transform="matrix(1.267128,0,0,1.25,289.06297,971.45968)"
       id="g2614">
      <path
         d="M 64.935,-338.237 L 64.935,-337.58 L 64.843,-337.084 L 64.549,-336.548 L 64.118,-336.012 L 63.801,-335.723"
         id="path2616"
         style="fill:none;stroke:#000000;stroke-width:0.087;stroke-linecap:butt;stroke-linejoin:miter;stroke-miterlimit:10;stroke-dasharray:none;stroke-opacity:1" />
    </g>
    <g
       transform="matrix(1.267128,0,0,1.25,289.06297,971.45968)"
       id="g2618">
      <path
         d="M 65.868,-334.821 L 66.689,-334.733 L 68.592,-335.023 L 69.816,-335.27 L 70.68,-335.27 L 71.038,-334.9 L 71.038,-334.324 L 70.858,-333.707 L 70.632,-333.086 L 70.767,-332.593"
         id="path2620"
         style="fill:#ef3e42;fill-opacity:1;fill-rule:nonzero;stroke:none" />
    </g>
    <g
       transform="matrix(1.267128,0,0,1.25,289.06297,971.45968)"
       id="g2622">
      <path
         d="M 65.868,-334.821 L 66.689,-334.733 L 68.592,-335.023 L 69.816,-335.27 L 70.68,-335.27 L 71.038,-334.9 L 71.038,-334.324 L 70.858,-333.707 L 70.632,-333.086 L 70.767,-332.593"
         id="path2624"
         style="fill:none;stroke:#000000;stroke-width:0.087;stroke-linecap:butt;stroke-linejoin:miter;stroke-miterlimit:10;stroke-dasharray:none;stroke-opacity:1" />
    </g>
    <g
       transform="matrix(1.267128,0,0,1.25,289.06297,971.45968)"
       id="g2626">
      <path
         d="M 69.409,-335.076 L 69.182,-334.786 L 68.774,-334.457 L 68.366,-334.333 L 68.002,-334.209 L 68.592,-334.046 L 69.361,-334.004 L 70.179,-333.881 L 70.955,-334.037"
         id="path2628"
         style="fill:#ef3e42;fill-opacity:1;fill-rule:nonzero;stroke:none" />
    </g>
    <g
       transform="matrix(1.267128,0,0,1.25,289.06297,971.45968)"
       id="g2630">
      <path
         d="M 69.409,-335.076 L 69.182,-334.786 L 68.774,-334.457 L 68.366,-334.333 L 68.002,-334.209 L 68.592,-334.046 L 69.361,-334.004 L 70.179,-333.881 L 70.955,-334.037"
         id="path2632"
         style="fill:none;stroke:#000000;stroke-width:0.087;stroke-linecap:butt;stroke-linejoin:miter;stroke-miterlimit:10;stroke-dasharray:none;stroke-opacity:1" />
    </g>
    <g
       transform="matrix(1.267128,0,0,1.25,289.06297,971.45968)"
       id="g2634">
      <path
         d="M 70.955,-334.037 L 70.994,-334.046"
         id="path2636"
         style="fill:#000000;fill-opacity:1;fill-rule:nonzero;stroke:none" />
    </g>
    <g
       transform="matrix(1.267128,0,0,1.25,289.06297,971.45968)"
       id="g2638">
      <path
         d="M 70.955,-334.037 L 70.994,-334.046"
         id="path2640"
         style="fill:none;stroke:#000000;stroke-width:0.043;stroke-linecap:butt;stroke-linejoin:miter;stroke-miterlimit:10;stroke-dasharray:none;stroke-opacity:1" />
    </g>
    <g
       transform="matrix(1.267128,0,0,1.25,289.06297,971.45968)"
       id="g2642">
      <path
         d="M 67.004,-341.299 L 67.73,-340.721 L 68.455,-340.476"
         id="path2644"
         style="fill:none;stroke:#000000;stroke-width:0.087;stroke-linecap:butt;stroke-linejoin:miter;stroke-miterlimit:10;stroke-dasharray:none;stroke-opacity:1" />
    </g>
    <g
       transform="matrix(1.267128,0,0,1.25,289.06297,971.45968)"
       id="g2646">
      <path
         d="M 63.258,-339.886 L 62.353,-339.104 L 61.625,-338.569 L 60.99,-338.198"
         id="path2648"
         style="fill:none;stroke:#000000;stroke-width:0.043;stroke-linecap:butt;stroke-linejoin:miter;stroke-miterlimit:10;stroke-dasharray:none;stroke-opacity:1" />
    </g>
    <g
       transform="matrix(1.267128,0,0,1.25,289.06297,971.45968)"
       id="g2650">
      <path
         d="M 69.069,-358.616 C 70.136,-358.6 74.943,-358.617 74.943,-358.617 L 74.927,-365.719 L 61.13,-365.732 L 61.13,-358.617 L 67.044,-358.617 C 67.044,-358.617 67.929,-357.315 69.069,-358.616"
         id="path2652"
         style="fill:#00549d;fill-opacity:1;fill-rule:nonzero;stroke:none" />
    </g>
    <g
       transform="matrix(1.267128,0,0,1.25,289.06297,971.45968)"
       id="g2654">
      <path
         d="M 69.069,-358.616 C 70.136,-358.6 74.943,-358.617 74.943,-358.617 L 74.927,-365.719 L 61.13,-365.732 L 61.13,-358.617 L 67.044,-358.617 C 67.044,-358.617 67.929,-357.315 69.069,-358.616 z"
         id="path2656"
         style="fill:none;stroke:#000000;stroke-width:0.095;stroke-linecap:butt;stroke-linejoin:miter;stroke-miterlimit:10;stroke-dasharray:none;stroke-opacity:1" />
    </g>
    <g
       transform="matrix(1.267128,0,0,1.25,289.06297,971.45968)"
       id="g2658">
      <g
         clip-path="url(#clipPath2662)"
         id="g2660">
        <path
           d="M 44.99,-380.778 C 43.948,-345.692 40.612,-335.163 67.821,-322.08 C 95.032,-335.163 91.693,-345.692 90.653,-380.778 L 44.99,-380.778 z"
           id="path2666"
           style="fill:none;stroke:#ffffff;stroke-width:0.884;stroke-linecap:butt;stroke-linejoin:miter;stroke-miterlimit:10;stroke-dasharray:none;stroke-opacity:1" />
      </g>
    </g>
    <g
       transform="matrix(1.267128,0,0,1.25,289.06297,971.45968)"
       id="g2670" />
    <g
       transform="matrix(1.267128,0,0,1.25,289.06297,971.45968)"
       id="g2674" />
    <g
       transform="matrix(1.267128,0,0,1.25,289.06297,971.45968)"
       id="g2678">
      <path
         d="M 69.892,-369.383 C 69.671,-369.241 69.427,-369.121 69.168,-369.025 L 69.873,-369.248 C 71.904,-369.937 73.345,-371.636 73.345,-373.624 C 73.345,-376.221 70.89,-378.325 67.857,-378.325 C 64.826,-378.325 62.37,-376.221 62.37,-373.624 C 62.37,-371.713 63.699,-370.068 65.61,-369.335 C 65.719,-369.291 65.829,-369.253 65.944,-369.216 L 65.903,-369.208 C 64.841,-369.748 64.129,-370.739 64.129,-371.873 C 64.129,-373.585 65.748,-374.973 67.745,-374.973 C 69.743,-374.973 71.361,-373.585 71.361,-371.873 C 71.361,-370.853 70.784,-369.947 69.892,-369.383"
         id="path2680"
         style="fill:#ffffff;fill-opacity:1;fill-rule:nonzero;stroke:none" />
    </g>
    <g
       transform="matrix(1.267128,0,0,1.25,289.06297,971.45968)"
       id="g2682">
      <path
         d="M 69.892,-369.383 C 69.671,-369.241 69.427,-369.121 69.168,-369.025 L 69.873,-369.248 C 71.904,-369.937 73.345,-371.636 73.345,-373.624 C 73.345,-376.221 70.89,-378.325 67.857,-378.325 C 64.826,-378.325 62.37,-376.221 62.37,-373.624 C 62.37,-371.713 63.699,-370.068 65.61,-369.335 C 65.719,-369.291 65.829,-369.253 65.944,-369.216 L 65.903,-369.208 C 64.841,-369.748 64.129,-370.739 64.129,-371.873 C 64.129,-373.585 65.748,-374.973 67.745,-374.973 C 69.743,-374.973 71.361,-373.585 71.361,-371.873 C 71.361,-370.853 70.784,-369.947 69.892,-369.383 z"
         id="path2684"
         style="fill:none;stroke:#000000;stroke-width:0.133;stroke-linecap:butt;stroke-linejoin:miter;stroke-miterlimit:10;stroke-dasharray:none;stroke-opacity:1" />
    </g>
    <g
       transform="matrix(1.267128,0,0,1.25,289.06297,971.45968)"
       id="g2686">
      <path
         d="M 70.226,-369.539 C 71.39,-370.246 72.153,-371.44 72.153,-372.795 C 72.153,-374.964 70.198,-376.722 67.788,-376.722 C 65.38,-376.722 63.425,-374.964 63.425,-372.795 C 63.425,-371.44 64.187,-370.246 65.347,-369.539"
         id="path2688"
         style="fill:none;stroke:#000000;stroke-width:0.221;stroke-linecap:butt;stroke-linejoin:miter;stroke-miterlimit:10;stroke-dasharray:none;stroke-opacity:1" />
    </g>
    <g
       transform="matrix(1.267128,0,0,1.25,289.06297,971.45968)"
       id="g2690">
      <path
         d="M 53.987,-378.787 L 58.258,-373.867 L 53.987,-368.946 L 49.618,-373.867 L 53.987,-378.787 z"
         id="path2692"
         style="fill:#fff200;fill-opacity:1;fill-rule:nonzero;stroke:none" />
    </g>
    <g
       transform="matrix(1.267128,0,0,1.25,289.06297,971.45968)"
       id="g2694">
      <path
         d="M 53.987,-378.787 L 58.258,-373.867 L 53.987,-368.946 L 49.618,-373.867 L 53.987,-378.787 z"
         id="path2696"
         style="fill:none;stroke:#000000;stroke-width:0.2;stroke-linecap:butt;stroke-linejoin:miter;stroke-miterlimit:10;stroke-dasharray:none;stroke-opacity:1" />
    </g>
    <g
       transform="matrix(1.267128,0,0,1.25,289.06297,971.45968)"
       id="g2698">
      <path
         d="M 54.009,-376.777 L 56.557,-373.819 L 54.055,-370.93 L 51.419,-373.869 L 54.009,-376.777 z"
         id="path2700"
         style="fill:#ef3e42;fill-opacity:1;fill-rule:nonzero;stroke:none" />
    </g>
    <g
       transform="matrix(1.267128,0,0,1.25,289.06297,971.45968)"
       id="g2702">
      <path
         d="M 54.009,-376.777 L 56.557,-373.819 L 54.055,-370.93 L 51.419,-373.869 L 54.009,-376.777 z"
         id="path2704"
         style="fill:none;stroke:#000000;stroke-width:0.131;stroke-linecap:butt;stroke-linejoin:miter;stroke-miterlimit:10;stroke-dasharray:none;stroke-opacity:1" />
    </g>
    <g
       transform="matrix(1.267128,0,0,1.25,289.06297,971.45968)"
       id="g2706">
      <path
         d="M 81.786,-378.941 L 86.053,-374.02 L 81.786,-369.102 L 77.415,-374.02 L 81.786,-378.941 z"
         id="path2708"
         style="fill:#fff200;fill-opacity:1;fill-rule:nonzero;stroke:none" />
    </g>
    <g
       transform="matrix(1.267128,0,0,1.25,289.06297,971.45968)"
       id="g2710">
      <path
         d="M 81.786,-378.941 L 86.053,-374.02 L 81.786,-369.102 L 77.415,-374.02 L 81.786,-378.941 z"
         id="path2712"
         style="fill:none;stroke:#000000;stroke-width:0.2;stroke-linecap:butt;stroke-linejoin:miter;stroke-miterlimit:10;stroke-dasharray:none;stroke-opacity:1" />
    </g>
    <g
       transform="matrix(1.267128,0,0,1.25,289.06297,971.45968)"
       id="g2714">
      <path
         d="M 81.76,-376.936 L 84.31,-373.978 L 81.804,-371.088 L 79.17,-374.03 L 81.76,-376.936 z"
         id="path2716"
         style="fill:#ef3e42;fill-opacity:1;fill-rule:nonzero;stroke:none" />
    </g>
    <g
       transform="matrix(1.267128,0,0,1.25,289.06297,971.45968)"
       id="g2718">
      <path
         d="M 81.76,-376.936 L 84.31,-373.978 L 81.804,-371.088 L 79.17,-374.03 L 81.76,-376.936 z"
         id="path2720"
         style="fill:none;stroke:#000000;stroke-width:0.131;stroke-linecap:butt;stroke-linejoin:miter;stroke-miterlimit:10;stroke-dasharray:none;stroke-opacity:1" />
    </g>
    <g
       transform="matrix(1.267128,0,0,1.25,289.06297,971.45968)"
       id="g2722">
      <path
         d="M 44.99,-380.778 C 43.948,-345.692 40.612,-335.163 67.821,-322.08 C 95.032,-335.163 91.693,-345.692 90.653,-380.778 L 44.99,-380.778 z"
         id="path2724"
         style="fill:none;stroke:#ffffff;stroke-width:0.80000001;stroke-linecap:butt;stroke-linejoin:miter;stroke-miterlimit:10;stroke-dasharray:none;stroke-opacity:1" />
    </g>
    <g
       transform="matrix(1.267128,0,0,1.25,289.06297,971.45968)"
       id="g2726">
      <path
         d="M 19.34375,46.46875 L 19.03125,46.84375 L 19.40625,46.90625 L 19.75,47.15625 L 20,47.59375 L 20.53125,47.375 L 20.59375,46.96875 L 20.59375,46.6875 L 19.875,46.46875 L 19.34375,46.46875 z M 17.125,48 L 16.84375,48.0625 L 16.59375,48.21875 L 16.40625,48.59375 L 16.25,48.9375 L 16.71875,48.84375 L 17.125,48.9375 L 17.65625,48.59375 L 17.59375,48 L 17.125,48 z M 14.90625,49.71875 L 14.65625,50.15625 L 14.28125,50.46875 L 14.25,50.84375 L 14.25,51.4375 L 14.46875,51.125 L 14.9375,50.96875 L 15.125,50.625 L 15.1875,50.09375 L 14.90625,49.71875 z M 14.625,51.9375 L 14.3125,52.15625 L 14.125,52.5 L 13.96875,52.875 L 13.96875,53.21875 L 14.5,53 L 14.96875,52.6875 L 15.15625,52.40625 L 15.09375,51.9375 L 14.625,51.9375 z M 15.46875,55.21875 L 14.9375,55.34375 L 14.5,55.59375 L 14.15625,55.96875 L 14.15625,56.34375 L 14.46875,56.125 L 14.875,56.09375 L 15.40625,56.34375 L 15.59375,55.59375 L 15.46875,55.21875 z M 13.21875,58.96875 L 12.875,59.5 L 12.8125,60.1875 L 13.03125,60.75 L 13.21875,60.34375 L 13.46875,59.90625 L 13.8125,59.59375 L 14.1875,59.3125 L 13.9375,59 L 13.875,59 L 13.21875,58.96875 z M 14.375,61.09375 L 14.1875,61.5625 L 14.125,62.1875 L 14.375,63 L 14.4375,62.5625 L 14.625,62.3125 L 15.15625,61.8125 L 15.09375,61.5625 L 14.90625,61.28125 L 14.84375,61.28125 L 14.375,61.09375 z M 22.5,61.3125 L 21.75,61.375 L 21.3125,61.75 L 21.15625,62.125 L 21.625,61.90625 L 22.15625,61.90625 L 22.8125,62.25 L 23.09375,61.6875 L 23.21875,61.375 L 22.5,61.3125 z M 17.1875,62.71875 L 16.90625,62.8125 L 17.03125,63.28125 L 17.1875,63.625 L 17.5625,63.84375 L 18.15625,64 L 18.5625,64 L 18.8125,63.875 L 18.4375,63.78125 L 18.03125,63.40625 L 17.78125,63.03125 L 17.1875,62.71875 z M 20.90625,63.34375 L 20.25,63.4375 L 19.65625,63.8125 L 19.34375,64.28125 L 19.28125,64.96875 L 19.9375,64.625 L 20.71875,64.5625 L 20.96875,64.1875 L 20.96875,63.71875 L 20.90625,63.34375 z M 32.46875,65.65625 L 31.71875,65.9375 L 31.4375,66.71875 L 31.8125,66.46875 L 32.40625,66.46875 L 32.875,66.71875 L 32.9375,66.25 L 32.75,65.875 L 32.46875,65.65625 z M 19.875,65.71875 L 19.71875,66.3125 L 19.6875,67.15625 L 19.875,67.8125 L 20.34375,67.15625 L 20.90625,66.90625 L 20.84375,66.375 L 20.59375,66.0625 L 20.25,65.84375 L 19.875,65.71875 z M 31.21875,67.5625 L 30.4375,67.78125 L 29.96875,68.15625 L 29.78125,68.78125 L 29.84375,69.25 L 30.03125,68.78125 L 30.5,68.5625 L 31.21875,68.46875 L 31.28125,68 L 31.21875,67.5625 z M 23.90625,68.03125 L 23.3125,68.0625 L 22.96875,68.125 L 22.96875,68.59375 L 23.21875,69.09375 L 23.75,69.5 L 24.40625,69.71875 L 24.875,69.71875 L 24.5,69.3125 L 24.34375,68.71875 L 24.46875,68.25 L 23.90625,68.03125 z M 29.96875,69.71875 L 29.46875,70.375 L 29.40625,70.9375 L 29.625,71.59375 L 29.875,71.21875 L 30,71 L 30.1875,70.84375 L 30.625,70.5 L 30.71875,70.25 L 30.71875,69.96875 L 30.3125,69.78125 L 29.96875,69.71875 z M 32.09375,71.4375 L 31.53125,71.65625 L 31.1875,72 L 30.9375,72.46875 L 31.03125,73.0625 L 31.4375,72.5 L 31.875,72.3125 L 32.3125,72.15625 L 32.4375,71.8125 L 32.09375,71.4375 z"
         transform="matrix(0.7891863,0,0,0.8,42.439272,-382.57154)"
         id="path2728"
         style="fill:#00549d;fill-opacity:1;fill-rule:nonzero;stroke:none" />
    </g>
    <g
       transform="matrix(1.267128,0,0,1.25,289.06297,971.45968)"
       id="g2730" />
    <g
       transform="matrix(1.267128,0,0,1.25,289.06297,971.45968)"
       id="g2734" />
    <g
       transform="matrix(1.267128,0,0,1.25,289.06297,971.45968)"
       id="g2738" />
    <g
       transform="matrix(1.267128,0,0,1.25,289.06297,971.45968)"
       id="g2742" />
    <g
       transform="matrix(1.267128,0,0,1.25,289.06297,971.45968)"
       id="g2746" />
    <g
       transform="matrix(1.267128,0,0,1.25,289.06297,971.45968)"
       id="g2750" />
    <g
       transform="matrix(1.267128,0,0,1.25,289.06297,971.45968)"
       id="g2754" />
    <g
       transform="matrix(1.267128,0,0,1.25,289.06297,971.45968)"
       id="g2758" />
    <g
       transform="matrix(1.267128,0,0,1.25,289.06297,971.45968)"
       id="g2762" />
    <g
       transform="matrix(1.267128,0,0,1.25,289.06297,971.45968)"
       id="g2766" />
    <g
       transform="matrix(1.267128,0,0,1.25,289.06297,971.45968)"
       id="g2770" />
    <g
       transform="matrix(1.267128,0,0,1.25,289.06297,971.45968)"
       id="g2774" />
    <g
       transform="matrix(1.267128,0,0,1.25,289.06297,971.45968)"
       id="g2778" />
    <g
       transform="matrix(1.267128,0,0,1.25,289.06297,971.45968)"
       id="g2782" />
    <g
       transform="matrix(1.267128,0,0,1.25,289.06297,971.45968)"
       id="g2786" />
    <g
       transform="matrix(1.267128,0,0,1.25,289.06297,971.45968)"
       id="g2790">
      <path
         d="M 68.014,-358.727 C 69.554,-360.406 72.635,-358.025 74.229,-359.28 L 74.229,-365.833 C 74.031,-365.676 73.546,-365.816 73.319,-366.211 C 71.694,-364.015 69.361,-366.75 68.014,-365.281"
         id="path2792"
         style="fill:#ef3e42;fill-opacity:1;fill-rule:nonzero;stroke:none" />
    </g>
    <g
       transform="matrix(1.267128,0,0,1.25,289.06297,971.45968)"
       id="g2794">
      <path
         d="M 68.014,-358.727 C 69.554,-360.406 72.635,-358.025 74.229,-359.28 L 74.229,-365.833 C 74.031,-365.676 73.546,-365.816 73.319,-366.211 C 71.694,-364.015 69.361,-366.75 68.014,-365.281"
         id="path2796"
         style="fill:none;stroke:#000000;stroke-width:0.133;stroke-linecap:butt;stroke-linejoin:miter;stroke-miterlimit:10;stroke-dasharray:none;stroke-opacity:1" />
    </g>
    <g
       transform="matrix(1.267128,0,0,1.25,289.06297,971.45968)"
       id="g2798">
      <path
         d="M 68.014,-358.727 C 66.474,-360.406 63.394,-358.025 61.798,-359.28 L 61.798,-365.833 C 62.024,-365.655 62.596,-365.871 62.711,-366.211 C 63.793,-364.154 66.693,-366.722 68.014,-365.281"
         id="path2800"
         style="fill:#ef3e42;fill-opacity:1;fill-rule:nonzero;stroke:none" />
    </g>
    <g
       transform="matrix(1.267128,0,0,1.25,289.06297,971.45968)"
       id="g2802">
      <path
         d="M 68.014,-358.727 C 66.474,-360.406 63.394,-358.025 61.798,-359.28 L 61.798,-365.833 C 62.024,-365.655 62.596,-365.871 62.711,-366.211 C 63.793,-364.154 66.693,-366.722 68.014,-365.281"
         id="path2804"
         style="fill:none;stroke:#000000;stroke-width:0.133;stroke-linecap:butt;stroke-linejoin:miter;stroke-miterlimit:10;stroke-dasharray:none;stroke-opacity:1" />
    </g>
    <g
       transform="matrix(1.267128,0,0,1.25,289.06297,971.45968)"
       id="g2806">
      <path
         d="M 68.014,-359.252 C 66.474,-360.933 64.306,-358.635 62.711,-359.89 L 62.711,-366.211 C 64.306,-364.957 66.474,-367.337 68.014,-365.659 L 68.014,-359.252"
         id="path2808"
         style="fill:#ffffff;fill-opacity:1;fill-rule:nonzero;stroke:none" />
    </g>
    <g
       transform="matrix(1.267128,0,0,1.25,289.06297,971.45968)"
       id="g2810">
      <path
         d="M 68.014,-359.252 C 66.474,-360.933 64.306,-358.635 62.711,-359.89 L 62.711,-366.211 C 64.306,-364.957 66.474,-367.337 68.014,-365.659 L 68.014,-359.252 z"
         id="path2812"
         style="fill:none;stroke:#000000;stroke-width:0.133;stroke-linecap:butt;stroke-linejoin:miter;stroke-miterlimit:10;stroke-dasharray:none;stroke-opacity:1" />
    </g>
    <g
       transform="matrix(1.267128,0,0,1.25,289.06297,971.45968)"
       id="g2814">
      <path
         d="M 68.014,-359.252 C 69.554,-360.933 71.721,-358.635 73.319,-359.89 L 73.319,-366.211 C 71.721,-364.957 69.554,-367.337 68.014,-365.659 L 68.014,-359.252"
         id="path2816"
         style="fill:#ffffff;fill-opacity:1;fill-rule:nonzero;stroke:none" />
    </g>
    <g
       transform="matrix(1.267128,0,0,1.25,289.06297,971.45968)"
       id="g2818">
      <path
         d="M 68.014,-359.252 C 69.554,-360.933 71.721,-358.635 73.319,-359.89 L 73.319,-366.211 C 71.721,-364.957 69.554,-367.337 68.014,-365.659 L 68.014,-359.252 z"
         id="path2820"
         style="fill:none;stroke:#000000;stroke-width:0.133;stroke-linecap:butt;stroke-linejoin:miter;stroke-miterlimit:10;stroke-dasharray:none;stroke-opacity:1" />
    </g>
    <g
       transform="matrix(1.267128,0,0,1.25,289.06297,971.45968)"
       id="g2822">
      <path
         d="M 68.014,-359.252 C 66.474,-360.933 64.306,-358.635 62.711,-359.89 L 62.711,-366.211 C 64.306,-364.957 66.474,-367.337 68.014,-365.659 L 68.014,-359.252"
         id="path2824"
         style="fill:#ffffff;fill-opacity:1;fill-rule:nonzero;stroke:none" />
    </g>
    <g
       transform="matrix(1.267128,0,0,1.25,289.06297,971.45968)"
       id="g2826">
      <path
         d="M 68.014,-359.252 C 66.474,-360.933 64.306,-358.635 62.711,-359.89 L 62.711,-366.211 C 64.306,-364.957 66.474,-367.337 68.014,-365.659 L 68.014,-359.252 z"
         id="path2828"
         style="fill:none;stroke:#000000;stroke-width:0.177;stroke-linecap:butt;stroke-linejoin:miter;stroke-miterlimit:10;stroke-dasharray:none;stroke-opacity:1" />
    </g>
    <g
       transform="matrix(1.267128,0,0,1.25,289.06297,971.45968)"
       id="g2830">
      <path
         d="M 68.014,-359.252 C 69.554,-360.933 71.721,-358.635 73.319,-359.89 L 73.319,-366.211 C 71.721,-364.957 69.554,-367.337 68.014,-365.659 L 68.014,-359.252"
         id="path2832"
         style="fill:#ffffff;fill-opacity:1;fill-rule:nonzero;stroke:none" />
    </g>
    <g
       transform="matrix(1.267128,0,0,1.25,289.06297,971.45968)"
       id="g2834">
      <path
         d="M 68.014,-359.252 C 69.554,-360.933 71.721,-358.635 73.319,-359.89 L 73.319,-366.211 C 71.721,-364.957 69.554,-367.337 68.014,-365.659 L 68.014,-359.252 z M 62.705,-364.687 C 64.301,-363.434 66.468,-365.816 68.008,-364.136 M 62.705,-361.435 C 64.301,-360.181 66.468,-362.562 68.008,-360.882 M 62.705,-363.068 C 64.301,-361.814 66.468,-364.196 68.008,-362.515"
         id="path2836"
         style="fill:none;stroke:#000000;stroke-width:0.177;stroke-linecap:butt;stroke-linejoin:miter;stroke-miterlimit:10;stroke-dasharray:none;stroke-opacity:1" />
    </g>
    <g
       transform="matrix(1.267128,0,0,1.25,289.06297,971.45968)"
       id="g2838">
      <path
         d="M 67.856,-365.262 L 67.508,-365.262 L 67.508,-360.166 L 67.856,-360.166 L 67.856,-365.262 z"
         id="path2840"
         style="fill:#ffffff;fill-opacity:1;fill-rule:nonzero;stroke:none" />
    </g>
    <g
       transform="matrix(1.267128,0,0,1.25,289.06297,971.45968)"
       id="g2842">
      <path
         d="M 67.856,-360.166 L 67.856,-365.262 L 67.508,-365.262 L 67.508,-360.166 L 67.856,-360.166 z"
         id="path2844"
         style="fill:none;stroke:#ffffff;stroke-width:0.177;stroke-linecap:butt;stroke-linejoin:miter;stroke-miterlimit:10;stroke-dasharray:none;stroke-opacity:1" />
    </g>
    <g
       transform="matrix(1.267128,0,0,1.25,289.06297,971.45968)"
       id="g2846">
      <path
         d="M 63.205,-365.553 L 62.855,-365.553 L 62.855,-360.457 L 63.205,-360.457 L 63.205,-365.553 z"
         id="path2848"
         style="fill:#ffffff;fill-opacity:1;fill-rule:nonzero;stroke:none" />
    </g>
    <g
       transform="matrix(1.267128,0,0,1.25,289.06297,971.45968)"
       id="g2850">
      <path
         d="M 63.205,-360.457 L 63.205,-365.553 L 62.856,-365.553 L 62.856,-360.457 L 63.205,-360.457 z"
         id="path2852"
         style="fill:none;stroke:#ffffff;stroke-width:0.177;stroke-linecap:butt;stroke-linejoin:miter;stroke-miterlimit:10;stroke-dasharray:none;stroke-opacity:1" />
    </g>
    <g
       transform="matrix(1.267128,0,0,1.25,289.06297,971.45968)"
       id="g2854">
      <path
         d="M 73.298,-364.687 C 71.702,-363.434 69.534,-365.816 67.994,-364.136 M 73.298,-361.435 C 71.702,-360.181 69.534,-362.562 67.994,-360.882 M 73.298,-363.068 C 71.702,-361.814 69.534,-364.196 67.994,-362.516"
         id="path2856"
         style="fill:none;stroke:#000000;stroke-width:0.177;stroke-linecap:butt;stroke-linejoin:miter;stroke-miterlimit:10;stroke-dasharray:none;stroke-opacity:1" />
    </g>
    <g
       transform="matrix(1.267128,0,0,1.25,289.06297,971.45968)"
       id="g2858">
      <path
         d="M 68.145,-365.262 L 68.493,-365.262 L 68.493,-360.166 L 68.145,-360.166 L 68.145,-365.262 z"
         id="path2860"
         style="fill:#ffffff;fill-opacity:1;fill-rule:nonzero;stroke:none" />
    </g>
    <g
       transform="matrix(1.267128,0,0,1.25,289.06297,971.45968)"
       id="g2862">
      <path
         d="M 68.145,-360.166 L 68.145,-365.262 L 68.493,-365.262 L 68.493,-360.166 L 68.145,-360.166 z"
         id="path2864"
         style="fill:none;stroke:#ffffff;stroke-width:0.177;stroke-linecap:butt;stroke-linejoin:miter;stroke-miterlimit:10;stroke-dasharray:none;stroke-opacity:1" />
    </g>
    <g
       transform="matrix(1.267128,0,0,1.25,289.06297,971.45968)"
       id="g2866">
      <path
         d="M 72.822,-365.635 L 73.174,-365.635 L 73.174,-360.54 L 72.822,-360.54 L 72.822,-365.635 z"
         id="path2868"
         style="fill:#ffffff;fill-opacity:1;fill-rule:nonzero;stroke:none" />
    </g>
    <g
       transform="matrix(1.267128,0,0,1.25,289.06297,971.45968)"
       id="g2870">
      <path
         d="M 72.822,-360.541 L 72.822,-365.635 L 73.174,-365.635 L 73.174,-360.541 L 72.822,-360.541 z"
         id="path2872"
         style="fill:none;stroke:#ffffff;stroke-width:0.177;stroke-linecap:butt;stroke-linejoin:miter;stroke-miterlimit:10;stroke-dasharray:none;stroke-opacity:1" />
    </g>
  </g>
</svg>
